<svg width="80" height="80" viewBox="0 0 80 80" fill="none" xmlns="http://www.w3.org/2000/svg">
<path fill-rule="evenodd" clip-rule="evenodd" d="M68.7762 24.4868H10.4346V19.2694H68.7762V24.4868Z" fill="black"/>
<path fill-rule="evenodd" clip-rule="evenodd" d="M24.559 20.2575V9.05991e-06H29.7763V20.2575H24.559ZM49.0134 20.2575V9.05991e-06H54.2308V20.2575H49.0134ZM16.9951 51.7157C13.3442 44.6076 12.9428 34.6094 13.9702 21.6716L19.1712 22.0846C18.1435 35.0267 18.7256 43.6654 21.6361 49.332C24.3409 54.598 29.3393 57.764 38.7888 58.9538C47.9085 57.7635 53.1421 54.8784 56.2506 49.6843C59.5557 44.1617 60.8012 35.5217 60.4265 21.9501L65.6419 21.8061C66.0185 35.448 64.8681 45.4449 60.7275 52.3635C56.4263 59.5508 49.2498 62.905 39.1186 64.1714L38.8015 64.211L38.4842 64.173C27.8817 62.9007 20.8218 59.1658 16.9951 51.7157Z" fill="black"/>
<path fill-rule="evenodd" clip-rule="evenodd" d="M36.1865 80V58.9322H41.4039V80H36.1865Z" fill="black"/>
</svg>
