<svg width="80" height="82" viewBox="0 0 80 82" fill="none" xmlns="http://www.w3.org/2000/svg">
<path fill-rule="evenodd" clip-rule="evenodd" d="M3.37305 78.1554L39.3833 42.1452L43.0725 45.8344L7.0623 81.8446L3.37305 78.1554Z" fill="black"/>
<path fill-rule="evenodd" clip-rule="evenodd" d="M77.3888 10.5481L74.7825 10.4348L74.5565 7.8359L77.5179 7.57839L77.3888 10.5481ZM18.3122 66.087C15.8009 66.7932 15.8006 66.7923 15.8004 66.7914L15.7979 66.7825L15.7923 66.7623L15.7735 66.6937C15.7578 66.6355 15.7357 66.5528 15.708 66.4466C15.6528 66.2342 15.5754 65.9281 15.4829 65.5377C15.298 64.7574 15.0518 63.6387 14.7998 62.259C14.2969 59.5055 13.7652 55.6831 13.6588 51.4206C13.4493 43.0313 14.8724 32.2836 22.1975 24.9585C25.8335 21.3225 31.0169 18.5027 36.5258 16.2991C42.0723 14.0805 48.1526 12.4073 53.7569 11.1619C59.3697 9.91456 64.5584 9.08462 68.3417 8.56635C70.2351 8.30698 71.7807 8.12509 72.8564 8.00772C73.3944 7.94903 73.8152 7.90644 74.1036 7.87835C74.2478 7.8643 74.3589 7.85388 74.435 7.84687L74.5227 7.8389L74.5565 7.8359C74.5572 7.83584 74.5565 7.8359 74.7825 10.4348C77.3888 10.5481 77.3888 10.5473 77.3888 10.5481L77.3886 10.5518L77.3883 10.559L77.3872 10.5836L77.3828 10.6731C77.379 10.7504 77.3731 10.8627 77.3649 11.0083C77.3484 11.2993 77.3225 11.7231 77.284 12.2646C77.207 13.3475 77.0797 14.9025 76.878 16.809C76.475 20.6181 75.7725 25.8507 74.5729 31.5361C73.375 37.2128 71.6694 43.3994 69.2409 49.0926C66.822 54.7631 63.6174 60.1077 59.3353 63.939C50.7955 71.5799 40.1143 72.6043 31.8866 71.8563C27.7465 71.4799 24.1296 70.6484 21.5486 69.9129C20.2552 69.5443 19.2143 69.1976 18.489 68.9399C18.1261 68.811 17.8417 68.7042 17.6435 68.6277C17.5443 68.5894 17.4667 68.5588 17.4116 68.5367L17.346 68.5102L17.326 68.5021L17.3167 68.4983C17.3157 68.4978 17.3147 68.4974 18.3122 66.087ZM18.3122 66.087L15.8009 66.7932L16.1439 68.013L17.3147 68.4974L18.3122 66.087ZM20.5093 64.1196C21.1265 64.3335 21.9628 64.6059 22.9785 64.8953C25.3335 65.5664 28.6219 66.3206 32.359 66.6603C39.8856 67.3446 48.8463 66.3229 55.8564 60.0508C59.3492 56.9256 62.1804 52.3469 64.4418 47.0455C66.6936 41.7669 68.3128 35.933 69.4679 30.4589C70.6212 24.9933 71.2998 19.9446 71.6896 16.2601C71.8057 15.1624 71.896 14.1877 71.9656 13.3611C71.1344 13.4603 70.1537 13.5842 69.0498 13.7355C65.3653 14.2402 60.3243 15.0471 54.8888 16.255C49.4448 17.4648 43.6584 19.0653 38.4635 21.1433C33.2309 23.2364 28.7981 25.7364 25.8868 28.6477C20.1173 34.4172 18.6754 43.3114 18.8746 51.2904C18.9725 55.212 19.4636 58.7554 19.9323 61.3216C20.1433 62.477 20.3487 63.4283 20.5093 64.1196Z" fill="black"/>
</svg>
