<svg width="80" height="80" viewBox="0 0 80 80" fill="none" xmlns="http://www.w3.org/2000/svg">
<path fill-rule="evenodd" clip-rule="evenodd" d="M38.8701 6.08696C35.9054 6.08696 33.4068 8.55833 33.4068 11.7257C33.4068 14.893 35.9054 17.3644 38.8701 17.3644C41.8348 17.3644 44.3333 14.893 44.3333 11.7257C44.3333 8.55833 41.8348 6.08696 38.8701 6.08696ZM28.1895 11.7257C28.1895 5.78319 32.9187 0.869565 38.8701 0.869565C44.8215 0.869565 49.5507 5.78319 49.5507 11.7257C49.5507 17.6682 44.8215 22.5818 38.8701 22.5818C32.9187 22.5818 28.1895 17.6682 28.1895 11.7257Z" fill="black"/>
<path fill-rule="evenodd" clip-rule="evenodd" d="M67.8047 27.351C64.84 27.351 62.3414 29.8223 62.3414 32.9897C62.3414 36.1571 64.84 38.6284 67.8047 38.6284C70.7693 38.6284 73.2679 36.1571 73.2679 32.9897C73.2679 29.8223 70.7693 27.351 67.8047 27.351ZM57.124 32.9897C57.124 27.0472 61.8533 22.1336 67.8047 22.1336C73.756 22.1336 78.4853 27.0472 78.4853 32.9897C78.4853 38.9322 73.756 43.8458 67.8047 43.8458C61.8533 43.8458 57.124 38.9322 57.124 32.9897Z" fill="black"/>
<path fill-rule="evenodd" clip-rule="evenodd" d="M11.5498 22.4025C8.58512 22.4025 6.08653 24.8739 6.08653 28.0412C6.08653 31.2086 8.58512 33.68 11.5498 33.68C14.5144 33.68 17.013 31.2086 17.013 28.0412C17.013 24.8739 14.5144 22.4025 11.5498 22.4025ZM0.869141 28.0412C0.869141 22.0987 5.59842 17.1851 11.5498 17.1851C17.5011 17.1851 22.2304 22.0987 22.2304 28.0412C22.2304 33.9837 17.5011 38.8973 11.5498 38.8973C5.59842 38.8973 0.869141 33.9837 0.869141 28.0412Z" fill="black"/>
<path fill-rule="evenodd" clip-rule="evenodd" d="M36.2607 69.8342V17.3196H41.4781V69.8342H36.2607Z" fill="black"/>
<path fill-rule="evenodd" clip-rule="evenodd" d="M25.7672 31.4747H17.0752V26.2573H30.9846V69.8342H25.7672V31.4747Z" fill="black"/>
<path fill-rule="evenodd" clip-rule="evenodd" d="M47.5615 32.0305H61.4709V37.2479H52.7789V80H47.5615V32.0305Z" fill="black"/>
</svg>
