<svg width="36" height="36" viewBox="0 0 36 36" fill="none" xmlns="http://www.w3.org/2000/svg">
<path fill-rule="evenodd" clip-rule="evenodd" d="M11.5 18C11.5 14.3945 14.4453 11.5 18 11.5C21.5547 11.5 24.5 14.4453 24.5 18C24.5 21.5547 21.6055 24.5 18 24.5C14.3945 24.5 11.5 21.6055 11.5 18ZM13.8359 18C13.8359 20.2852 15.7148 22.1641 18 22.1641C20.2852 22.1641 22.1641 20.2852 22.1641 18C22.1641 15.7148 20.2852 13.8359 18 13.8359C15.7148 13.8359 13.8359 15.7148 13.8359 18Z" fill="white"/>
<circle cx="24.5" cy="11.5" r="1.3" fill="white"/>
<path fill-rule="evenodd" clip-rule="evenodd" d="M23.3992 5C25.6008 5 27.5403 5.73387 28.9032 7.14919C30.2661 8.5121 31 10.3992 31 12.6008V23.3992C31 25.6532 30.2661 27.5927 28.8508 28.9556C27.4879 30.2661 25.6008 31 23.3468 31H12.6532C10.504 31 8.61694 30.3185 7.20161 28.9556C5.73387 27.5403 5 25.6008 5 23.3468V12.6008C5 8.04032 8.04032 5 12.6008 5H23.3992ZM27.1742 27.2266C28.1178 26.3355 28.5895 25.025 28.5895 23.4H28.6944V12.6016C28.6944 11.0815 28.1702 9.77098 27.279 8.82743C26.3355 7.88388 25.025 7.41211 23.4524 7.41211H12.654C11.0815 7.41211 9.71856 7.88388 8.82743 8.77501C7.88388 9.71856 7.41211 11.029 7.41211 12.6016V23.3476C7.41211 24.9726 7.88388 26.2831 8.82743 27.2266C9.77098 28.1178 11.0815 28.5895 12.654 28.5895H23.3476C24.9202 28.5895 26.2307 28.1178 27.1742 27.2266Z" fill="white"/>
</svg>
