<svg width="80" height="80" viewBox="0 0 80 80" fill="none" xmlns="http://www.w3.org/2000/svg">
<path fill-rule="evenodd" clip-rule="evenodd" d="M59.1449 14.0972C46.5502 11.1618 33.4492 11.1618 20.8545 14.0972L11.4181 16.2964L11.5337 18.4406C12.5374 37.052 21.2533 54.4028 35.5848 66.3192L40.0499 70.0319L42.3161 68.2597C56.3104 57.3156 65.3818 41.2586 67.5329 23.6237L68.431 16.2614L59.1449 14.0972ZM19.6703 9.01594C33.044 5.89902 46.9554 5.89902 60.3292 9.01594L74.1772 12.2434L72.7119 24.2555C70.3932 43.2645 60.615 60.5727 45.5301 72.3696L39.9495 76.7338L32.2491 70.331C16.8009 57.486 7.4058 38.7832 6.32391 18.7216L5.97266 12.2083L19.6703 9.01594Z" fill="black"/>
<path fill-rule="evenodd" clip-rule="evenodd" d="M36.627 49.7137V23.754H41.8443V49.7137H36.627Z" fill="black"/>
</svg>
