<svg width="36" height="36" viewBox="0 0 36 36" fill="none" xmlns="http://www.w3.org/2000/svg">
<g clip-path="url(#clip0_413_3598)">
<path fill-rule="evenodd" clip-rule="evenodd" d="M6.06526 4H29.9279C31.0699 4 31.9993 4.90398 31.9993 6.01916V29.9801C31.9993 31.0953 31.0692 32.0007 29.9279 32.0007H6.06526C4.926 32.0007 4 31.0953 4 29.9801V6.01916C4 4.90398 4.926 4 6.06526 4ZM8.1484 14.4969H12.3057V27.8592H8.1484V14.4969ZM10.2281 7.85466C11.5566 7.85466 12.6353 8.93338 12.6353 10.2625C12.6353 11.5917 11.5566 12.6711 10.2281 12.6711C8.89965 12.6711 7.81887 11.5924 7.81887 10.2625C7.81887 8.9327 8.89415 7.85466 10.2281 7.85466ZM14.911 14.4969H18.8916V16.3234H18.9487C19.5025 15.2729 20.8571 14.1653 22.8776 14.1653C27.0824 14.1653 27.8598 16.9323 27.8598 20.531V27.8591H23.7073V21.3614C23.7073 19.8121 23.6805 17.8184 21.5492 17.8184C19.4179 17.8184 19.0588 19.5073 19.0588 21.2506V27.8591H14.911V14.4969Z" fill="white"/>
</g>
<defs>
<clipPath id="clip0_413_3598">
<rect width="28" height="28.0007" fill="white" transform="translate(4 4)"/>
</clipPath>
</defs>
</svg>
