<svg width="83" height="80" viewBox="0 0 83 80" fill="none" xmlns="http://www.w3.org/2000/svg">
<path fill-rule="evenodd" clip-rule="evenodd" d="M29.3813 14.7826C28.9417 14.7826 28.5712 15.1107 28.5181 15.5471L26.5733 31.5201L21.3942 30.8895L23.3389 14.9165C23.7108 11.8618 26.3041 9.56522 29.3813 9.56522H76.2201C79.781 9.56522 82.5815 12.6086 82.286 16.1573L78.2312 64.8529C77.9684 68.0079 75.3311 70.4348 72.1652 70.4348H20V65.2174H72.1652C72.6175 65.2174 72.9942 64.8707 73.0318 64.42L77.0866 15.7243C77.1289 15.2174 76.7288 14.7826 76.2201 14.7826H29.3813ZM4.85507 40.7274H21.8876V45.9448H4.85507V40.7274ZM0 53.0103H41.0905V58.2277H0V53.0103Z" fill="black"/>
</svg>
