<?xml version="1.0" encoding="UTF-8"?>
<svg id="Mahindra_Tech_Vertical_Logo_Lockup_RGB" data-name="Mahindra Tech Vertical Logo Lockup RGB" xmlns="http://www.w3.org/2000/svg" version="1.1" viewBox="0 0 687 180">
  <defs>
    <style>
      .cls-1 {
        fill: #4d4d4f;
      }

      .cls-1, .cls-2 {
        stroke-width: 0px;
      }

      .cls-2 {
        fill: #e31837;
        fill-rule: evenodd;
      }
    </style>
  </defs>
  <path class="cls-1" d="M68.8,17.2h-24.8v46.8h-17.3V17.2H1.8V3.1h67v14.1h0ZM77.1,64.1V3.1h58.5v13.2h-41.3v10.4h38.8v12.3h-38.8v11.9h43.3v13.2h-60.5ZM145,34.9c0-7.6,1.5-13.8,4.4-18.6s7.4-8.3,13.2-10.6c5.8-2.3,13-3.4,21.6-3.4s5.4,0,7.7.2c2.3.1,4.4.3,6.4.6,2,.3,3.9.6,5.8,1,1.9.4,3.8.9,5.9,1.4l-3.5,12.5c-2.5-.5-5-.9-7.4-1.3-2.4-.3-4.7-.6-6.9-.7-2.3-.2-4.5-.3-6.8-.3-3.9,0-7.3.4-10.2,1.1-2.8.7-5.2,1.8-7,3.3s-3.1,3.5-4,5.9c-.9,2.4-1.3,5.3-1.3,8.7s.4,5.6,1.3,7.8,2.2,4,4,5.4c1.8,1.4,4.1,2.4,6.8,3.1,2.7.7,6,1,9.8,1s7.9-.2,12.1-.7c4.1-.5,8.1-1.2,11.8-2.1l3.1,12.1c-2,.6-4,1.1-6,1.6s-4.2.9-6.6,1.2-4.9.6-7.7.8c-2.8.2-5.9.3-9.3.3-6,0-11.4-.6-16-1.7s-8.5-2.9-11.6-5.3c-3.1-2.4-5.5-5.5-7.1-9.3-1.6-3.8-2.4-8.4-2.4-13.8h0ZM221.2,64.1V3.1h17.4v26h33.5V3.1h17.4v61h-17.4v-20.7h-33.5v20.7s-17.4,0-17.4,0Z"/>
  <path class="cls-2" d="M148.3,116.9h46.5c10.6,0,19.2,8.3,19.2,18.5v42.4h-69.6c-6.4,0-11.7-5.1-11.7-11.3v-14.7c0-5.8,4.9-10.5,10.9-10.5h38.6l-4.1,8.6h-28.4c-1.3,0-2.6.9-2.6,2.3v11.6c0,1.3,1.4,2.3,2.6,2.3h49.2v-27.8c0-5.4-4.8-9.5-10.1-9.5h-46.2l5.6-11.8h0ZM530.6,94.7v83h-67.8c-6.4,0-11.7-5.1-11.7-11.3v-31.1c0-10.2,8.6-18.5,19.2-18.5h38.7l-5.7,11.8h-27c-5.3,0-10.1,4.1-10.1,9.5v25.5c0,1.3,1.4,2.3,2.6,2.3h46.8v-71.2h15ZM292.3,177.7h15v-42.4c0-10.2-8.6-18.5-19.2-18.5h-31.9l-5.7,11.8h31.6c5.3,0,10.1,4.1,10.1,9.5v39.6ZM229.8,94.7v83h15v-83h-15ZM104.5,177.7h15v-42.4c0-10.2-8.6-18.5-19.2-18.5H1.8v60.9h15v-46.8c0-1.3,1.4-2.3,2.6-2.3h31c1.3,0,2.6.9,2.6,2.3v46.8h15v-46.8c0-1.3,1.4-2.3,2.6-2.3h23.5c5.3,0,10.1,4.1,10.1,9.5v39.6h0ZM609,116.9h-37.7c-10.6,0-19.2,8.3-19.2,18.5v42.4h15v-39.6c0-5.4,4.8-9.5,10.1-9.5h26l5.7-11.8h0ZM416.7,116.9c10.6,0,19.2,8.3,19.2,18.5v42.4h-15v-39.6c0-5.4-4.8-9.5-10.1-9.5h-36.1v49.1h-15v-60.8c19,0,38,0,57.1,0h0ZM325.9,120.7l15-8.6v65.6h-15v-57ZM341,103.6v-9h-15v17.6l15-8.6h0ZM619.5,116.9h46.5c10.6,0,19.2,8.3,19.2,18.5v42.4h-69.6c-6.4,0-11.7-5.1-11.7-11.3v-14.7c0-5.8,4.9-10.5,10.9-10.5h38.6l-4.1,8.6h-28.4c-1.3,0-2.6.9-2.6,2.3v11.6c0,1.3,1.4,2.3,2.6,2.3h49.2v-27.8c0-5.4-4.8-9.5-10.1-9.5h-46.2l5.6-11.8h0Z"/>
</svg>