<svg width="80" height="80" viewBox="0 0 80 80" fill="none" xmlns="http://www.w3.org/2000/svg">
<path fill-rule="evenodd" clip-rule="evenodd" d="M1.63379 27.7206L19.0251 10.3293L22.7143 14.0185L5.32304 31.4098L1.63379 27.7206Z" fill="black"/>
<path fill-rule="evenodd" clip-rule="evenodd" d="M40.0217 25.2174C36.2148 25.2174 32.5546 26.6861 29.8036 29.3175L20.2165 38.4877C17.301 41.2765 15.652 45.1357 15.652 49.1703V71.3043H74.7824V25.2174H40.0217ZM26.1972 25.5472C29.9192 21.987 34.8711 20 40.0217 20H79.9998V76.5217H10.4346V49.1703C10.4346 43.7118 12.6656 38.4904 16.6101 34.7174L26.1972 25.5472Z" fill="black"/>
<path fill-rule="evenodd" clip-rule="evenodd" d="M48.6963 2.60869H80.0006V22.6087H74.7832V7.82608H53.9137V22.6087H48.6963V2.60869Z" fill="black"/>
</svg>
