<?xml version="1.0" encoding="utf-8"?>
<!-- Generator: Adobe Illustrator 28.0.0, SVG Export Plug-In . SVG Version: 6.00 Build 0)  -->
<svg version="1.1" id="Layer_1" xmlns="http://www.w3.org/2000/svg" xmlns:xlink="http://www.w3.org/1999/xlink" x="0px" y="0px"
	 viewBox="0 0 80 80" style="enable-background:new 0 0 80 80;" xml:space="preserve">
<style type="text/css">
	.st0{fill-rule:evenodd;clip-rule:evenodd;}
</style>
<g>
	<polygon class="st0" points="47.8,50.4 27,50.4 27,62.5 6.2,62.5 6.2,79 11.4,79 11.4,67.7 27,67.7 27,79 32.2,79 32.2,62.5 
		32.2,55.6 47.8,55.6 47.8,79 53,79 53,50.4 53,41.7 68.6,41.7 68.6,79 73.8,79 73.8,36.5 47.8,36.5 	"/>
	<path class="st0" d="M73.4,3.1c0-0.1-0.1-0.3-0.1-0.4c-0.4-1-1.4-1.7-2.4-1.7H54.7c-1.4,0-2.6,1.2-2.6,2.6c0,1.4,1.2,2.6,2.6,2.6
		h9.4L38.4,29.6l-7.8-7c-1-0.9-2.5-0.9-3.5,0L7.1,40.7c-1.1,1-1.2,2.6-0.2,3.7c1,1.1,2.6,1.2,3.7,0.2L28.9,28l7.8,7
		c1,0.9,2.5,0.9,3.5,0L68.6,9.2v11.4c0,1.4,1.2,2.6,2.6,2.6c1.4,0,2.6-1.2,2.6-2.6V4.5C73.8,4,73.7,3.5,73.4,3.1z"/>
</g>
</svg>
