<?xml version="1.0" encoding="utf-8"?>
<!-- Generator: Adobe Illustrator 28.0.0, SVG Export Plug-In . SVG Version: 6.00 Build 0)  -->
<svg version="1.1" id="Layer_1" xmlns="http://www.w3.org/2000/svg" xmlns:xlink="http://www.w3.org/1999/xlink" x="0px" y="0px"
	 viewBox="0 0 80 80" style="enable-background:new 0 0 80 80;" xml:space="preserve">
<style type="text/css">
	.st0{fill-rule:evenodd;clip-rule:evenodd;}
</style>
<path class="st0" d="M71.6-0.2H8.4c-4.4,0-7.9,3.5-7.9,7.9v52.6c0,4.4,3.5,7.9,7.9,7.9h41.4l0.5,7.5c0.2,3.8,4.9,5.5,7.6,2.7
	l8.8-9.4c0.5-0.5,1.2-0.8,1.9-0.8h3c4.4,0,7.9-3.5,7.9-7.9V7.7C79.4,3.3,75.9-0.2,71.6-0.2z M5.8,60.3V7.7c0-1.5,1.2-2.6,2.6-2.6
	h24.2v20.7c0,3.3,2.7,6,6,6c1.9,0,3.8-0.8,5.1-2.2c1.6-1.7,4-2.8,6.5-2.8c5,0,9,4,9,9s-4,9-9,9c-2.6,0-4.9-1.1-6.5-2.8
	c-1.3-1.4-3.2-2.2-5.1-2.2c-3.3,0-6,2.7-6,6v17.2H8.4C7,62.9,5.8,61.8,5.8,60.3z M74.2,60.3c0,1.5-1.2,2.6-2.6,2.6h-3
	c-2.2,0-4.3,0.9-5.8,2.5l-7.4,7.9L55,67c-0.1-2.3-2.1-4.1-4.4-4.1H37.9V45.7c0-0.4,0.3-0.7,0.7-0.7c0.5,0,1,0.2,1.3,0.6l0,0
	c2.6,2.7,6.3,4.4,10.3,4.4c7.9,0,14.3-6.4,14.3-14.3s-6.4-14.3-14.3-14.3c-4.1,0-7.7,1.7-10.3,4.4l0,0c-0.3,0.4-0.8,0.6-1.3,0.6
	c-0.4,0-0.7-0.3-0.7-0.7V5.1h33.7c1.5,0,2.6,1.2,2.6,2.6V60.3z"/>
</svg>
