<svg width="80" height="80" viewBox="0 0 80 80" fill="none" xmlns="http://www.w3.org/2000/svg">
<path fill-rule="evenodd" clip-rule="evenodd" d="M7.33087 32.9574C7.3301 32.9584 7.33029 32.9582 7.33087 32.9574L5.81067 35.0694L1.57617 32.0214L3.10016 29.9041L5.13709 31.3703C3.10018 29.9041 3.10095 29.903 3.10175 29.9019L3.10361 29.8994L3.10811 29.8931L3.12031 29.8764L3.15748 29.826C3.18794 29.7851 3.22978 29.7295 3.28301 29.6603C3.38947 29.5219 3.54162 29.3289 3.73968 29.0891C4.13566 28.6096 4.71607 27.942 5.48273 27.1494C7.01473 25.5656 9.29913 23.4739 12.351 21.3868C18.4667 17.2045 27.6663 13.0435 40 13.0435C52.3338 13.0435 61.5334 17.2045 67.6491 21.3868C70.7009 23.4739 72.9853 25.5656 74.5173 27.1494C75.284 27.942 75.8644 28.6096 76.2604 29.0891C76.4584 29.3289 76.6106 29.5219 76.717 29.6603C76.7703 29.7295 76.8121 29.7851 76.8426 29.826L76.8797 29.8764L76.8919 29.8931L76.8964 29.8994L76.8983 29.9019C76.8991 29.9031 76.8999 29.9041 74.7826 31.4281L76.8999 29.9041L78.4239 32.0214L74.1894 35.0694L72.6692 32.9574L72.6667 32.954L72.6654 32.9521L72.6561 32.9397C72.6422 32.921 72.6174 32.8879 72.5817 32.8416C72.5104 32.7489 72.3957 32.603 72.2375 32.4114C71.921 32.0281 71.4312 31.4633 70.7673 30.7768C69.438 29.4026 67.4193 27.5504 64.7039 25.6935C59.2851 21.9878 51.0934 18.2609 40 18.2609C28.9067 18.2609 20.7149 21.9878 15.2961 25.6935C12.5807 27.5504 10.562 29.4026 9.23279 30.7768C8.56882 31.4633 8.07905 32.0281 7.76252 32.4114C7.60432 32.603 7.48963 32.7489 7.41831 32.8416C7.38265 32.8879 7.35786 32.921 7.34392 32.9397L7.33226 32.9554L7.33087 32.9574Z" fill="black"/>
<path fill-rule="evenodd" clip-rule="evenodd" d="M24.9487 52.7214L23.8167 55.0536L19.123 52.7753L20.2622 50.4285L22.609 51.5676C20.2622 50.4285 20.2628 50.4271 20.2635 50.4257L20.265 50.4228L20.2682 50.4162L20.276 50.4005L20.2967 50.3592C20.3129 50.3273 20.3338 50.2869 20.3597 50.2385C20.4113 50.1417 20.4825 50.0128 20.5745 49.8563C20.7582 49.5436 21.0259 49.1194 21.3867 48.6213C22.1071 47.6267 23.2076 46.3256 24.7643 45.0307C27.911 42.4132 32.8379 39.8962 40.0003 39.8962C47.1628 39.8962 52.0896 42.4132 55.2364 45.0307C56.7931 46.3256 57.8936 47.6267 58.614 48.6213C58.9748 49.1194 59.2424 49.5436 59.4262 49.8563C59.5182 50.0128 59.5894 50.1417 59.641 50.2385C59.6668 50.2869 59.6877 50.3273 59.7039 50.3592L59.7247 50.4005L59.7325 50.4162L59.7357 50.4228L59.7371 50.4257C59.7378 50.4271 59.7385 50.4285 57.3916 51.5676L59.7385 50.4285L60.8776 52.7753L56.1839 55.0536L55.0519 52.7215L55.0371 52.6932C55.0179 52.6572 54.982 52.5915 54.9283 52.5001C54.8208 52.3172 54.6432 52.0334 54.3886 51.6819C53.8782 50.9772 53.0669 50.0126 51.8999 49.0418C49.599 47.1279 45.8302 45.1136 40.0003 45.1136C34.1704 45.1136 30.4016 47.1279 28.1008 49.0418C26.9337 50.0126 26.1225 50.9772 25.6121 51.6819C25.3574 52.0334 25.1799 52.3172 25.0724 52.5001C25.0187 52.5915 24.9827 52.6572 24.9635 52.6932L24.9487 52.7214Z" fill="black"/>
<path fill-rule="evenodd" clip-rule="evenodd" d="M40.0001 72.0271C38.9386 72.0271 38.127 72.2243 37.5128 72.4765C36.6738 72.821 36.1149 73.3056 35.7717 73.6876C35.5995 73.8793 35.4849 74.0416 35.4217 74.1395C35.3969 74.178 35.3806 74.2056 35.3723 74.22L34.2513 76.5294L29.5576 74.2512L30.6968 71.9043L33.0436 73.0435C30.6968 71.9043 30.6972 71.9034 30.6977 71.9024L30.6987 71.9004L30.7007 71.8962L30.7051 71.8873L30.7151 71.8672L30.74 71.8184C30.7589 71.7822 30.7823 71.7384 30.8104 71.6879C30.8667 71.587 30.9422 71.4587 31.0387 71.3092C31.2312 71.0111 31.5105 70.6238 31.8907 70.2006C32.6522 69.3531 33.8325 68.3476 35.5309 67.6501C36.7823 67.1363 38.2678 66.8097 40.0001 66.8097C41.7324 66.8097 43.2179 67.1363 44.4693 67.6501C46.1678 68.3476 47.3481 69.3531 48.1096 70.2006C48.4897 70.6238 48.769 71.0111 48.9615 71.3092C49.058 71.4587 49.1335 71.587 49.1898 71.6879C49.2179 71.7384 49.2413 71.7822 49.2602 71.8184L49.2851 71.8672L49.2951 71.8873L49.2995 71.8962L49.3015 71.9004L49.3025 71.9024C49.303 71.9034 49.3035 71.9043 46.9566 73.0435L49.3035 71.9043L50.4426 74.2512L45.7489 76.5294L44.6279 74.22C44.6197 74.2056 44.6033 74.178 44.5785 74.1395C44.5153 74.0416 44.4008 73.8793 44.2286 73.6876C43.8853 73.3056 43.3265 72.821 42.4875 72.4765C41.8732 72.2243 41.0617 72.0271 40.0001 72.0271Z" fill="black"/>
</svg>
