<svg width="36" height="36" viewBox="0 0 36 36" fill="none" xmlns="http://www.w3.org/2000/svg">
<g clip-path="url(#clip0_1138_6636)">
<path fill-rule="evenodd" clip-rule="evenodd" d="M31.286 6.7109C32.7498 7.10273 33.9001 8.25305 34.2919 9.71683H34.2891C35 12.3673 35 17.9006 35 17.9006C35 17.9006 35 23.4338 34.2891 26.0843C33.8973 27.5481 32.747 28.6984 31.2832 29.0902C28.6327 29.8011 18 29.8011 18 29.8011C18 29.8011 7.3673 29.8011 4.71683 29.0902C3.25305 28.6984 2.10273 27.5481 1.7109 26.0843C1 23.4338 1 17.9006 1 17.9006C1 17.9006 1 12.3673 1.7109 9.71683C2.10273 8.25305 3.25305 7.10273 4.71683 6.7109C7.3673 6 18 6 18 6C18 6 28.6327 6 31.286 6.7109ZM23.4353 17.9005L14.5994 12.8011V23L23.4353 17.9005Z" fill="white"/>
</g>
<defs>
<clipPath id="clip0_1138_6636">
<rect width="34" height="23.8011" fill="white" transform="translate(1 6)"/>
</clipPath>
</defs>
</svg>
